STARTFONT 2.1
FONT -FontForge-Nasalization-Book-R-Normal--10-100-75-75-P-66-ISO10646-1
SIZE 10 75 75
FONTBOUNDINGBOX 11 10 -1 -2
COMMENT "Generated by fontforge, http://fontforge.sourceforge.net"
COMMENT "(c) 1999-2024 Typodermic Fonts Inc."
STARTPROPERTIES 39
FOUNDRY "FontForge"
FAMILY_NAME "Nasalization"
WEIGHT_NAME "Book"
SLANT "R"
SETWIDTH_NAME "Normal"
ADD_STYLE_NAME ""
PIXEL_SIZE 10
POINT_SIZE 100
RESOLUTION_X 75
RESOLUTION_Y 75
SPACING "P"
AVERAGE_WIDTH 66
CHARSET_REGISTRY "ISO10646"
CHARSET_ENCODING "1"
FONTNAME_REGISTRY ""
CHARSET_COLLECTIONS "ISO10646-1"
FONT_NAME "Nasalization-Regular"
FACE_NAME "Nasalization Regular"
COPYRIGHT "(c) 1999-2024 Typodermic Fonts Inc."
FONT_VERSION "5.100"
FONT_ASCENT 8
FONT_DESCENT 2
UNDERLINE_POSITION -1
UNDERLINE_THICKNESS 1
X_HEIGHT 4
CAP_HEIGHT 6
RAW_ASCENT 800
RAW_DESCENT 200
NORM_SPACE 3
RELATIVE_WEIGHT 40
RELATIVE_SETWIDTH 50
SUPERSCRIPT_X 0
SUPERSCRIPT_Y 3
SUPERSCRIPT_SIZE 3
SUBSCRIPT_X 0
SUBSCRIPT_Y 0
SUBSCRIPT_SIZE 3
AVG_LOWERCASE_WIDTH 62
AVG_UPPERCASE_WIDTH 72
ENDPROPERTIES
CHARS 66
STARTCHAR space
ENCODING 32
SWIDTH 267 0
DWIDTH 3 0
BBX 1 1 0 0
BITMAP
00
ENDCHAR
STARTCHAR dollar
ENCODING 36
SWIDTH 620 0
DWIDTH 6 0
BBX 5 8 1 -1
BITMAP
20
F0
80
F0
18
F0
20
20
ENDCHAR
STARTCHAR zero
ENCODING 48
SWIDTH 748 0
DWIDTH 7 0
BBX 6 7 1 0
BITMAP
70
C8
8C
8C
8C
88
78
ENDCHAR
STARTCHAR one
ENCODING 49
SWIDTH 337 0
DWIDTH 3 0
BBX 3 7 0 0
BITMAP
C0
60
60
60
60
60
60
ENDCHAR
STARTCHAR two
ENCODING 50
SWIDTH 734 0
DWIDTH 7 0
BBX 6 7 1 0
BITMAP
F8
0C
04
78
C0
80
FC
ENDCHAR
STARTCHAR three
ENCODING 51
SWIDTH 681 0
DWIDTH 7 0
BBX 5 7 1 0
BITMAP
F0
18
08
70
08
08
F8
ENDCHAR
STARTCHAR four
ENCODING 52
SWIDTH 704 0
DWIDTH 7 0
BBX 6 7 0 0
BITMAP
1C
34
64
44
C4
7C
04
ENDCHAR
STARTCHAR five
ENCODING 53
SWIDTH 685 0
DWIDTH 7 0
BBX 5 7 1 0
BITMAP
F8
80
80
F8
08
08
F8
ENDCHAR
STARTCHAR six
ENCODING 54
SWIDTH 713 0
DWIDTH 7 0
BBX 6 7 1 0
BITMAP
78
C0
80
F8
8C
8C
78
ENDCHAR
STARTCHAR seven
ENCODING 55
SWIDTH 651 0
DWIDTH 7 0
BBX 6 7 0 0
BITMAP
FC
04
04
08
18
30
20
ENDCHAR
STARTCHAR eight
ENCODING 56
SWIDTH 726 0
DWIDTH 7 0
BBX 6 7 1 0
BITMAP
F8
8C
8C
F8
8C
8C
F8
ENDCHAR
STARTCHAR nine
ENCODING 57
SWIDTH 713 0
DWIDTH 7 0
BBX 6 7 1 0
BITMAP
70
98
88
FC
08
08
F0
ENDCHAR
STARTCHAR equal
ENCODING 61
SWIDTH 619 0
DWIDTH 6 0
BBX 6 1 0 4
BITMAP
FC
ENDCHAR
STARTCHAR A
ENCODING 65
SWIDTH 784 0
DWIDTH 8 0
BBX 7 7 0 0
BITMAP
18
3C
24
24
46
42
C2
ENDCHAR
STARTCHAR B
ENCODING 66
SWIDTH 719 0
DWIDTH 7 0
BBX 6 7 1 0
BITMAP
F8
8C
8C
F8
8C
8C
F8
ENDCHAR
STARTCHAR C
ENCODING 67
SWIDTH 682 0
DWIDTH 7 0
BBX 5 7 1 0
BITMAP
78
C0
80
80
80
80
78
ENDCHAR
STARTCHAR D
ENCODING 68
SWIDTH 737 0
DWIDTH 7 0
BBX 6 7 1 0
BITMAP
F0
98
8C
84
84
88
F8
ENDCHAR
STARTCHAR E
ENCODING 69
SWIDTH 693 0
DWIDTH 7 0
BBX 5 7 1 0
BITMAP
F8
80
80
F8
80
80
F8
ENDCHAR
STARTCHAR F
ENCODING 70
SWIDTH 663 0
DWIDTH 7 0
BBX 5 7 1 0
BITMAP
78
C0
80
F8
80
80
80
ENDCHAR
STARTCHAR G
ENCODING 71
SWIDTH 729 0
DWIDTH 7 0
BBX 6 7 1 0
BITMAP
78
C0
80
B8
84
8C
78
ENDCHAR
STARTCHAR H
ENCODING 72
SWIDTH 745 0
DWIDTH 7 0
BBX 6 7 1 0
BITMAP
8C
8C
8C
FC
8C
8C
8C
ENDCHAR
STARTCHAR I
ENCODING 73
SWIDTH 281 0
DWIDTH 3 0
BBX 1 7 1 0
BITMAP
80
80
80
80
80
80
80
ENDCHAR
STARTCHAR J
ENCODING 74
SWIDTH 583 0
DWIDTH 6 0
BBX 5 7 0 0
BITMAP
08
08
08
08
08
08
F0
ENDCHAR
STARTCHAR K
ENCODING 75
SWIDTH 708 0
DWIDTH 7 0
BBX 6 7 1 0
BITMAP
8C
88
98
F0
98
88
8C
ENDCHAR
STARTCHAR L
ENCODING 76
SWIDTH 622 0
DWIDTH 6 0
BBX 5 7 1 0
BITMAP
80
80
80
80
80
80
F8
ENDCHAR
STARTCHAR M
ENCODING 77
SWIDTH 1102 0
DWIDTH 11 0
BBX 9 7 1 0
BITMAP
E380
A280
A280
B680
9480
9480
9C80
ENDCHAR
STARTCHAR N
ENCODING 78
SWIDTH 879 0
DWIDTH 9 0
BBX 7 7 1 0
BITMAP
C2
A2
B2
92
92
8A
8E
ENDCHAR
STARTCHAR O
ENCODING 79
SWIDTH 816 0
DWIDTH 8 0
BBX 7 7 1 0
BITMAP
78
CC
84
86
86
84
78
ENDCHAR
STARTCHAR P
ENCODING 80
SWIDTH 679 0
DWIDTH 7 0
BBX 5 7 1 0
BITMAP
F0
08
08
F8
80
80
80
ENDCHAR
STARTCHAR Q
ENCODING 81
SWIDTH 816 0
DWIDTH 8 0
BBX 7 8 1 -1
BITMAP
78
CC
84
86
96
94
78
08
ENDCHAR
STARTCHAR R
ENCODING 82
SWIDTH 714 0
DWIDTH 7 0
BBX 6 7 1 0
BITMAP
F8
08
0C
F8
90
88
88
ENDCHAR
STARTCHAR S
ENCODING 83
SWIDTH 703 0
DWIDTH 7 0
BBX 6 7 1 0
BITMAP
F8
80
80
F8
08
0C
F8
ENDCHAR
STARTCHAR T
ENCODING 84
SWIDTH 571 0
DWIDTH 6 0
BBX 5 7 0 0
BITMAP
F8
20
20
20
20
20
20
ENDCHAR
STARTCHAR U
ENCODING 85
SWIDTH 732 0
DWIDTH 7 0
BBX 6 7 1 0
BITMAP
8C
8C
8C
8C
8C
8C
F8
ENDCHAR
STARTCHAR V
ENCODING 86
SWIDTH 784 0
DWIDTH 8 0
BBX 8 7 0 0
BITMAP
C3
42
46
64
24
2C
18
ENDCHAR
STARTCHAR W
ENCODING 87
SWIDTH 1046 0
DWIDTH 10 0
BBX 10 7 0 0
BITMAP
CC40
CA40
5A40
5240
52C0
52C0
7180
ENDCHAR
STARTCHAR X
ENCODING 88
SWIDTH 781 0
DWIDTH 8 0
BBX 6 7 1 0
BITMAP
84
4C
78
30
78
C8
84
ENDCHAR
STARTCHAR Y
ENCODING 89
SWIDTH 689 0
DWIDTH 7 0
BBX 7 7 0 0
BITMAP
C6
44
28
30
10
10
10
ENDCHAR
STARTCHAR Z
ENCODING 90
SWIDTH 743 0
DWIDTH 7 0
BBX 6 7 1 0
BITMAP
F8
0C
0C
30
C0
80
FC
ENDCHAR
STARTCHAR a
ENCODING 97
SWIDTH 672 0
DWIDTH 7 0
BBX 5 5 1 0
BITMAP
F8
08
F8
88
F8
ENDCHAR
STARTCHAR b
ENCODING 98
SWIDTH 695 0
DWIDTH 7 0
BBX 5 8 1 0
BITMAP
80
80
80
F8
88
88
88
F8
ENDCHAR
STARTCHAR c
ENCODING 99
SWIDTH 602 0
DWIDTH 6 0
BBX 5 5 1 0
BITMAP
F8
80
80
80
F8
ENDCHAR
STARTCHAR d
ENCODING 100
SWIDTH 695 0
DWIDTH 7 0
BBX 5 8 1 0
BITMAP
08
08
08
F8
88
88
88
F8
ENDCHAR
STARTCHAR e
ENCODING 101
SWIDTH 652 0
DWIDTH 7 0
BBX 5 5 1 0
BITMAP
F8
88
F8
80
F8
ENDCHAR
STARTCHAR f
ENCODING 102
SWIDTH 375 0
DWIDTH 4 0
BBX 3 8 0 0
BITMAP
20
40
40
E0
40
40
40
40
ENDCHAR
STARTCHAR g
ENCODING 103
SWIDTH 692 0
DWIDTH 7 0
BBX 5 7 1 -2
BITMAP
F8
88
88
88
78
08
F8
ENDCHAR
STARTCHAR h
ENCODING 104
SWIDTH 707 0
DWIDTH 7 0
BBX 5 8 1 0
BITMAP
80
80
80
F8
88
88
88
88
ENDCHAR
STARTCHAR i
ENCODING 105
SWIDTH 258 0
DWIDTH 3 0
BBX 1 7 1 0
BITMAP
80
00
80
80
80
80
80
ENDCHAR
STARTCHAR j
ENCODING 106
SWIDTH 270 0
DWIDTH 3 0
BBX 3 9 -1 -2
BITMAP
20
00
20
20
20
20
20
20
E0
ENDCHAR
STARTCHAR k
ENCODING 107
SWIDTH 602 0
DWIDTH 6 0
BBX 5 8 1 0
BITMAP
80
80
80
90
90
E0
90
98
ENDCHAR
STARTCHAR l
ENCODING 108
SWIDTH 258 0
DWIDTH 3 0
BBX 1 8 1 0
BITMAP
80
80
80
80
80
80
80
80
ENDCHAR
STARTCHAR m
ENCODING 109
SWIDTH 1032 0
DWIDTH 10 0
BBX 9 5 1 0
BITMAP
FF00
8980
8880
8880
8880
ENDCHAR
STARTCHAR n
ENCODING 110
SWIDTH 707 0
DWIDTH 7 0
BBX 5 5 1 0
BITMAP
F8
88
88
88
88
ENDCHAR
STARTCHAR o
ENCODING 111
SWIDTH 671 0
DWIDTH 7 0
BBX 5 5 1 0
BITMAP
F8
88
88
88
F0
ENDCHAR
STARTCHAR p
ENCODING 112
SWIDTH 693 0
DWIDTH 7 0
BBX 5 7 1 -2
BITMAP
F8
88
88
88
F8
80
80
ENDCHAR
STARTCHAR q
ENCODING 113
SWIDTH 693 0
DWIDTH 7 0
BBX 5 7 1 -2
BITMAP
F8
88
88
88
F8
08
08
ENDCHAR
STARTCHAR r
ENCODING 114
SWIDTH 463 0
DWIDTH 5 0
BBX 3 5 1 0
BITMAP
E0
80
80
80
80
ENDCHAR
STARTCHAR s
ENCODING 115
SWIDTH 586 0
DWIDTH 6 0
BBX 4 5 1 0
BITMAP
F0
80
F0
10
F0
ENDCHAR
STARTCHAR t
ENCODING 116
SWIDTH 375 0
DWIDTH 4 0
BBX 3 7 0 0
BITMAP
40
40
E0
40
40
40
60
ENDCHAR
STARTCHAR u
ENCODING 117
SWIDTH 702 0
DWIDTH 7 0
BBX 5 5 1 0
BITMAP
88
88
88
88
F8
ENDCHAR
STARTCHAR v
ENCODING 118
SWIDTH 677 0
DWIDTH 7 0
BBX 5 5 1 0
BITMAP
88
88
90
50
70
ENDCHAR
STARTCHAR w
ENCODING 119
SWIDTH 977 0
DWIDTH 10 0
BBX 9 5 0 0
BITMAP
DC80
5480
5280
5280
7380
ENDCHAR
STARTCHAR x
ENCODING 120
SWIDTH 681 0
DWIDTH 7 0
BBX 5 5 1 0
BITMAP
88
50
20
50
88
ENDCHAR
STARTCHAR y
ENCODING 121
SWIDTH 647 0
DWIDTH 6 0
BBX 6 7 0 -2
BITMAP
C4
4C
48
28
30
10
20
ENDCHAR
STARTCHAR z
ENCODING 122
SWIDTH 624 0
DWIDTH 6 0
BBX 5 5 1 0
BITMAP
F8
18
E0
80
F8
ENDCHAR
STARTCHAR degree
ENCODING 176
SWIDTH 389 0
DWIDTH 4 0
BBX 4 3 0 4
BITMAP
60
90
90
ENDCHAR
ENDFONT
